<svg width="24" height="24" viewBox="0 0 24 24" fill="none" xmlns="http://www.w3.org/2000/svg">
<circle cx="12" cy="12" r="12" fill="#397DED"/>
<g clip-path="url(#clip0_971_1058)">
<path d="M9.82869 17.8288L17.8858 9.77164L16.2858 8.17164L9.82869 14.6288L6.57155 11.3716L4.97155 12.9716L9.82869 17.8288ZM11.4287 24.0002C9.84774 24.0002 8.36203 23.7002 6.97155 23.1002C5.58107 22.5002 4.37155 21.6859 3.34298 20.6574C2.31441 19.6288 1.50012 18.4193 0.900122 17.0288C0.300122 15.6383 0.00012207 14.1526 0.00012207 12.5716C0.00012207 10.9907 0.300122 9.50497 0.900122 8.1145C1.50012 6.72402 2.31441 5.5145 3.34298 4.48592C4.37155 3.45735 5.58107 2.64307 6.97155 2.04307C8.36203 1.44307 9.84774 1.14307 11.4287 1.14307C13.0096 1.14307 14.4954 1.44307 15.8858 2.04307C17.2763 2.64307 18.4858 3.45735 19.5144 4.48592C20.543 5.5145 21.3573 6.72402 21.9573 8.1145C22.5573 9.50497 22.8573 10.9907 22.8573 12.5716C22.8573 14.1526 22.5573 15.6383 21.9573 17.0288C21.3573 18.4193 20.543 19.6288 19.5144 20.6574C18.4858 21.6859 17.2763 22.5002 15.8858 23.1002C14.4954 23.7002 13.0096 24.0002 11.4287 24.0002ZM11.4287 21.7145C13.9811 21.7145 16.143 20.8288 17.9144 19.0574C19.6858 17.2859 20.5716 15.124 20.5716 12.5716C20.5716 10.0193 19.6858 7.85735 17.9144 6.08592C16.143 4.3145 13.9811 3.42878 11.4287 3.42878C8.87631 3.42878 6.71441 4.3145 4.94298 6.08592C3.17155 7.85735 2.28584 10.0193 2.28584 12.5716C2.28584 15.124 3.17155 17.2859 4.94298 19.0574C6.71441 20.8288 8.87631 21.7145 11.4287 21.7145Z" fill="white"/>
</g>
<defs>
<clipPath id="clip0_971_1058">
<rect width="13.7143" height="10.2857" fill="white" transform="translate(4.57141 8)"/>
</clipPath>
</defs>
</svg>
